# xmcd CD database file generated by Grip 2.94
# 
# Track frame offsets:
#       150
#       10792
#       30270
#       45692
#       60712
#       74497
#       93085
#       108342
#       127747
#       142245
# 
# Disc length: 2103 seconds
# 
# Revision: 3
# Processed by: cddbd v1.4b41PL1 Copyright (c) Steve Scherf et al.
# Submitted via: Grip 2.94
# 
DISCID=7e08350a
DTITLE=Cledus "T." Judd (No Relation) - Juddmental
DYEAR=1999
DGENRE=Satire
TTITLE0=She's Inflatable
TTITLE1=Coronary Life
TTITLE2=Ricky Tidwell's Mama Is Gonna Play Football
TTITLE3=Christ-mas
TTITLE4=Cledus the Karaoke King
TTITLE5=Shania I'm Broke
TTITLE6=Where the Grass Don't Grow
TTITLE7=Hillbilly Honeymoon
TTITLE8=In Another Size
TTITLE9=Livin' Like John Travolta
EXTD=YEAR: 1999  ID3G: 110
EXTT0=
EXTT1=
EXTT2=
EXTT3=
EXTT4=
EXTT5=
EXTT6=
EXTT7=
EXTT8=
EXTT9=
PLAYORDER=
